# xmcd
#
# Track frame offsets:
#	150
#	12620
#	22580
#	32182
#	44995
#	61497
#	73972
#	84990
#	95875
#	108413
#	137812
#	148427
#	158249
#	177588
#	188432
#	201900
#	221374
#	229318
#
# Disc length: 3421 seconds
#
# Revision: 1
# Processed by: cddbd v1.5.2PL0 Copyright (c) Steve Scherf et al.
# Submitted via: audiograbber 1.83.01
#
DISCID=150d5b12
DTITLE=James Brown - And I Do Just What I Want Disc 1
DYEAR=2006
DGENRE=Soul
TTITLE0=Please, Please, Please
TTITLE1=No No No No
TTITLE2=I'll Go Crazy
TTITLE3=Mashed Potatoes '66
TTITLE4=Night Train
TTITLE5=I Love You, Yes I Do
TTITLE6=I Got You
TTITLE7=Prisoner of Love
TTITLE8=Waiting In Vain
TTITLE9=Oh Baby Don't You Weep
TTITLE10=Out of Sight
TTITLE11=Fine Old Foxy Self
TTITLE12=Papa's Got A Brand New Bag
TTITLE13=And I Do Just What I Want
TTITLE14=You've Got the Power
TTITLE15=Fat Bag
TTITLE16=The Scratch
TTITLE17=Money Won't Change You
EXTD=
EXTT0=
EXTT1=
EXTT2=
EXTT3=
EXTT4=
EXTT5=
EXTT6=
EXTT7=
EXTT8=
EXTT9=
EXTT10=
EXTT11=
EXTT12=
EXTT13=
EXTT14=
EXTT15=
EXTT16=
EXTT17=
PLAYORDER=
